<svg width="22" height="22" viewBox="0 0 22 22" fill="current" xmlns="http://www.w3.org/2000/svg">
<path d="M15.125 18.3333H16.0417V14.6667H15.125V18.3333ZM15.5833 13.75C15.7056 13.75 15.8125 13.7042 15.9042 13.6125C15.9958 13.5208 16.0417 13.4139 16.0417 13.2917C16.0417 13.1694 15.9958 13.0625 15.9042 12.9708C15.8125 12.8792 15.7056 12.8333 15.5833 12.8333C15.4611 12.8333 15.3542 12.8792 15.2625 12.9708C15.1708 13.0625 15.125 13.1694 15.125 13.2917C15.125 13.4139 15.1708 13.5208 15.2625 13.6125C15.3542 13.7042 15.4611 13.75 15.5833 13.75ZM6.41667 12.8333H9.78542C9.95347 12.4819 10.1483 12.1535 10.3698 11.8479C10.5913 11.5424 10.8396 11.2597 11.1146 11H6.41667V12.8333ZM6.41667 16.5H9.23542C9.18958 16.1944 9.16667 15.8889 9.16667 15.5833C9.16667 15.2778 9.18958 14.9722 9.23542 14.6667H6.41667V16.5ZM4.58333 20.1667C4.07917 20.1667 3.64757 19.9872 3.28854 19.6281C2.92951 19.2691 2.75 18.8375 2.75 18.3333V3.66667C2.75 3.1625 2.92951 2.7309 3.28854 2.37188C3.64757 2.01285 4.07917 1.83333 4.58333 1.83333H11.9167L17.4167 7.33333V9.44167C17.1264 9.35 16.8285 9.28125 16.5229 9.23542C16.2174 9.18958 15.9042 9.16667 15.5833 9.16667V8.25H11V3.66667H4.58333V18.3333H9.78542C9.95347 18.6847 10.1483 19.0132 10.3698 19.3188C10.5913 19.6243 10.8396 19.9069 11.1146 20.1667H4.58333ZM15.5833 11C16.8514 11 17.9323 11.4469 18.826 12.3406C19.7198 13.2344 20.1667 14.3153 20.1667 15.5833C20.1667 16.8514 19.7198 17.9323 18.826 18.826C17.9323 19.7198 16.8514 20.1667 15.5833 20.1667C14.3153 20.1667 13.2344 19.7198 12.3406 18.826C11.4469 17.9323 11 16.8514 11 15.5833C11 14.3153 11.4469 13.2344 12.3406 12.3406C13.2344 11.4469 14.3153 11 15.5833 11Z" fill="#9B9B9B"/>
</svg>
