<svg width="22" height="22" viewBox="0 0 22 22" fill="none" xmlns="http://www.w3.org/2000/svg">
<path d="M10.9541 16.5C11.2749 16.5 11.5461 16.3892 11.7676 16.1677C11.9892 15.9462 12.0999 15.675 12.0999 15.3542C12.0999 15.0333 11.9892 14.7622 11.7676 14.5406C11.5461 14.3191 11.2749 14.2083 10.9541 14.2083C10.6333 14.2083 10.3621 14.3191 10.1405 14.5406C9.91902 14.7622 9.80825 15.0333 9.80825 15.3542C9.80825 15.675 9.91902 15.9462 10.1405 16.1677C10.3621 16.3892 10.6333 16.5 10.9541 16.5ZM10.1291 12.9708H11.8249C11.8249 12.4667 11.8822 12.0695 11.9968 11.7792C12.1114 11.4889 12.436 11.0917 12.9708 10.5875C13.368 10.1903 13.6812 9.81216 13.9103 9.45314C14.1395 9.09411 14.2541 8.66251 14.2541 8.15834C14.2541 7.30279 13.9409 6.64584 13.3145 6.18751C12.6881 5.72918 11.9471 5.50001 11.0916 5.50001C10.2208 5.50001 9.51415 5.72918 8.97179 6.18751C8.42943 6.64584 8.05131 7.19584 7.83742 7.83751L9.34992 8.43334C9.42631 8.15834 9.59818 7.86043 9.86554 7.53959C10.1329 7.21876 10.5416 7.05834 11.0916 7.05834C11.5805 7.05834 11.9471 7.19202 12.1916 7.45939C12.436 7.72675 12.5583 8.02084 12.5583 8.34168C12.5583 8.64723 12.4666 8.93369 12.2833 9.20105C12.0999 9.46841 11.8708 9.71668 11.5958 9.94584C10.9235 10.5417 10.511 10.9924 10.3583 11.2979C10.2055 11.6035 10.1291 12.1611 10.1291 12.9708ZM10.9999 20.1667C9.73186 20.1667 8.5402 19.9261 7.42492 19.4448C6.30964 18.9636 5.3395 18.3104 4.5145 17.4854C3.6895 16.6604 3.03638 15.6903 2.55513 14.575C2.07388 13.4597 1.83325 12.2681 1.83325 11C1.83325 9.73196 2.07388 8.54029 2.55513 7.42501C3.03638 6.30973 3.6895 5.33959 4.5145 4.51459C5.3395 3.68959 6.30964 3.03647 7.42492 2.55522C8.5402 2.07397 9.73186 1.83334 10.9999 1.83334C12.268 1.83334 13.4596 2.07397 14.5749 2.55522C15.6902 3.03647 16.6603 3.68959 17.4853 4.51459C18.3103 5.33959 18.9635 6.30973 19.4447 7.42501C19.926 8.54029 20.1666 9.73196 20.1666 11C20.1666 12.2681 19.926 13.4597 19.4447 14.575C18.9635 15.6903 18.3103 16.6604 17.4853 17.4854C16.6603 18.3104 15.6902 18.9636 14.5749 19.4448C13.4596 19.9261 12.268 20.1667 10.9999 20.1667ZM10.9999 18.3333C13.0471 18.3333 14.7812 17.6229 16.202 16.2021C17.6228 14.7813 18.3333 13.0472 18.3333 11C18.3333 8.95279 17.6228 7.21876 16.202 5.79793C14.7812 4.37709 13.0471 3.66668 10.9999 3.66668C8.9527 3.66668 7.21867 4.37709 5.79784 5.79793C4.377 7.21876 3.66659 8.95279 3.66659 11C3.66659 13.0472 4.377 14.7813 5.79784 16.2021C7.21867 17.6229 8.9527 18.3333 10.9999 18.3333Z" fill="#9B9B9B"/>
</svg>
