<svg width="22" height="22" viewBox="0 0 22 22" fill="none" xmlns="http://www.w3.org/2000/svg">
<path d="M10.0834 17.4167H11.9167V13.5896L13.3834 15.0562L14.6667 13.75L11.0001 10.0833L7.33341 13.75L8.63966 15.0333L10.0834 13.5896V17.4167ZM5.50008 20.1667C4.99591 20.1667 4.56432 19.9871 4.20529 19.6281C3.84626 19.2691 3.66675 18.8375 3.66675 18.3333V3.66666C3.66675 3.16249 3.84626 2.7309 4.20529 2.37187C4.56432 2.01284 4.99591 1.83333 5.50008 1.83333H12.8334L18.3334 7.33333V18.3333C18.3334 18.8375 18.1539 19.2691 17.7949 19.6281C17.4358 19.9871 17.0042 20.1667 16.5001 20.1667H5.50008ZM11.9167 8.25V3.66666H5.50008V18.3333H16.5001V8.25H11.9167Z" fill="#9B9B9B"/>
</svg>
