<svg width="22" height="22" viewBox="0 0 22 22" fill="none" xmlns="http://www.w3.org/2000/svg">
<path d="M16.5 19.25L15.2167 17.9667L16.6604 16.5H12.8333V14.6667H16.6604L15.2167 13.2L16.5 11.9167L20.1667 15.5833L16.5 19.25ZM2.75 19.25V5.50001C2.75 4.99584 2.92951 4.56424 3.28854 4.20521C3.64757 3.84619 4.07917 3.66667 4.58333 3.66667H15.5833C16.0875 3.66667 16.5191 3.84619 16.8781 4.20521C17.2372 4.56424 17.4167 4.99584 17.4167 5.50001V10.1521C17.2639 10.1215 17.1111 10.1024 16.9583 10.0948C16.8056 10.0872 16.6528 10.0833 16.5 10.0833C16.3472 10.0833 16.1944 10.0872 16.0417 10.0948C15.8889 10.1024 15.7361 10.1215 15.5833 10.1521V5.50001H4.58333V14.6667H11.0687C11.0382 14.8194 11.0191 14.9722 11.0115 15.125C11.0038 15.2778 11 15.4306 11 15.5833C11 15.7361 11.0038 15.8889 11.0115 16.0417C11.0191 16.1944 11.0382 16.3472 11.0687 16.5H5.5L2.75 19.25ZM6.41667 9.16667H13.75V7.33334H6.41667V9.16667ZM6.41667 12.8333H11V11H6.41667V12.8333Z" fill="#9B9B9B"/>
</svg>
