<svg width="24" height="24" viewBox="0 0 24 24" fill="none" xmlns="http://www.w3.org/2000/svg">
<path d="M18.35 14.85L16.9 13.4C17.1 13.2167 17.2542 13.0042 17.3625 12.7625C17.4708 12.5208 17.525 12.2667 17.525 12C17.525 11.7333 17.4708 11.4792 17.3625 11.2375C17.2542 10.9958 17.1 10.7833 16.9 10.6L18.35 9.15C18.7333 9.53333 19.025 9.97083 19.225 10.4625C19.425 10.9542 19.525 11.4667 19.525 12C19.525 12.5333 19.425 13.0458 19.225 13.5375C19.025 14.0292 18.7333 14.4667 18.35 14.85ZM20.8 17.3L19.4 15.9C19.9167 15.3833 20.3167 14.7917 20.6 14.125C20.8833 13.4583 21.025 12.75 21.025 12C21.025 11.25 20.8833 10.5417 20.6 9.875C20.3167 9.20833 19.9167 8.61667 19.4 8.1L20.8 6.7C21.5167 7.4 22.0667 8.20833 22.45 9.125C22.8333 10.0417 23.025 11 23.025 12C23.025 13 22.8333 13.9583 22.45 14.875C22.0667 15.7917 21.5167 16.6 20.8 17.3ZM7 23C6.45 23 5.97917 22.8042 5.5875 22.4125C5.19583 22.0208 5 21.55 5 21V3C5 2.45 5.19583 1.97917 5.5875 1.5875C5.97917 1.19583 6.45 1 7 1H17C17.55 1 18.0208 1.19583 18.4125 1.5875C18.8042 1.97917 19 2.45 19 3V7H17V6H7V18H17V17H19V21C19 21.55 18.8042 22.0208 18.4125 22.4125C18.0208 22.8042 17.55 23 17 23H7ZM7 20V21H17V20H7ZM7 4H17V3H7V4Z" fill="#A6A6A6"/>
</svg>
